After exploring his disillusionment with religion in his previous films, Ingmar Bergman adopted a humanistic approach for this classic study in isolationism. Legendary Scandinavian director Victor Sjöström stars as Isak Borg, an aging medical professor who reassesses his life while journeying to his former university to receive an honorary degree. Borg travels with his estranged daughter-in-law Marianne (Ingrid Thulin) and revisits many of the landmarks of his past, conjuring up memories of his family and of his onetime sweetheart Sara (Bibi Andersson). Returning to the present, he meets a teenage girl who resembles the long-departed Sara. She hitches a ride with the professor and Marianne, as do a ceaselessly bickering married couple. These new characters eventually become intertwined with Borg's hazy flashbacks and fantasies, as the old man recalls the disappointments and disillusionments that have left him cold and guilt-ridden, attributes emphasized when he encounters his equally cold and resentful son. Bookending Borg's odyssey of self-discovery are a series of symbolic images at the beginning of the film (a clock without hands, a man without a face) and a hauntingly beautiful finale, in which professor is beckoned back to the "perfect" world he left behind so many years earlier. This classic art movie remains one of Bergman's most accessible films and one of the most influential European art movies of its generation. Its intense focus on one man's thoughts, regrets, and memories set the tone for innumerable psychological character studies in its wake.

   General
      Complete name : Smultronstallet.avi
      Format : AVI
      Format/Info : Audio Video Interleave
      File size : 1.09 GiB
      Duration : 1h 30mn
      Overall bit rate : 1 721 Kbps
      Writing application : Nandub v1.0rc2
      Writing library : Nandub build 1852/release
   Video #0
      ID : 0
      Format : MPEG-4 Visual
      Format profile : AdvancedSimple@L5
      Format settings, BVOP : Yes
      Format settings, QPel : No
      Format settings, GMC : No warppoints
      Format settings, Matrix : Custom
      Codec ID : XVID
      Codec ID/Hint : XviD
      Duration : 1h 30mn
      Bit rate : 1 522 Kbps
      Width : 576 pixels
      Height : 432 pixels
      Display aspect ratio : 4:3
      Frame rate : 23.976 fps
      Resolution : 24 bits
      Colorimetry : 4:2:0
      Scan type : Progressive
      Bits/(Pixel*Frame) : 0.255
      Stream size : 988 MiB (88%)
      Writing library : XviD 1.1.0 (UTC 2005-11-22)
   Audio #1
      ID : 1
      Format : AC-3
      Format/Info : Audio Coding 3
      Codec ID : 2000
      Duration : 1h 30mn
      Bit rate mode : Constant
      Bit rate : 192 Kbps
      Channel(s) : 2 channels
      Channel positions : L R
      Sampling rate : 48.0 KHz
      Video delay : 20ms
      Stream size : 125 MiB (11%)
      Alignment : Split accross interleaves
      Interleave, duration : 96 ms (2.30 video frames)
      Interleave, preload duration : 96 ms

Swedish audio; English, Spanish and Portuguese subtitles

IMDB: tt0050986